<?xml version="1.0" encoding="UTF-8"?>
<svg xmlns="http://www.w3.org/2000/svg" xmlns:xlink="http://www.w3.org/1999/xlink" viewBox="0 0 675.4 237.44"><defs><style>.e{fill:#00aed6;}.f{clip-path:url(#d);}.g{fill:#193773;}</style><clipPath id="d"><path class="e" d="M51.31,0H121.06l-42.54,149.25L159.22,0h71.95L86.03,237.44H0L51.31,0ZM242.45,0h67.57l-99.79,237.44h-67.57L242.45,0Zm91.03,0h63.18l-11.27,99.72L425.44,0h66.94l-99.79,237.44h-64.44l12.51-104.81-42.22,104.81h-64.75L333.49,0Zm182.07,0h67.57l-41.61,98.71L608.15,0h67.26l-95.09,140.09-5.64,97.35h-67.26l14.08-88.87-38.16,88.87h-67.57L515.56,0Z"/></clipPath></defs><g id="a"/><g id="b"><g id="c"><g><path class="e" d="M51.31,0H121.06l-42.54,149.25L159.22,0h71.95L86.03,237.44H0L51.31,0ZM242.45,0h67.57l-99.79,237.44h-67.57L242.45,0Zm91.03,0h63.18l-11.27,99.72L425.44,0h66.94l-99.79,237.44h-64.44l12.51-104.81-42.22,104.81h-64.75L333.49,0Zm182.07,0h67.57l-41.61,98.71L608.15,0h67.26l-95.09,140.09-5.64,97.35h-67.26l14.08-88.87-38.16,88.87h-67.57L515.56,0Z"/><g class="f"><path class="g" d="M346.92-92.74c8.35,0,15.13,6.77,15.13,15.13s-6.77,15.13-15.13,15.13-15.13-6.77-15.13-15.13,6.77-15.13,15.13-15.13Zm-53.48,15.13c0,8.35,6.77,15.13,15.13,15.13s15.13-6.77,15.13-15.13-6.77-15.13-15.13-15.13-15.13,6.77-15.13,15.13Zm-38.36,0c0,8.35,6.77,15.13,15.13,15.13s15.13-6.77,15.13-15.13-6.77-15.13-15.13-15.13-15.13,6.77-15.13,15.13Zm-38.36,0c0,8.35,6.77,15.13,15.13,15.13s15.13-6.77,15.13-15.13-6.77-15.13-15.13-15.13-15.13,6.77-15.13,15.13Zm-38.36,0c0,8.35,6.77,15.13,15.13,15.13s15.13-6.77,15.13-15.13-6.77-15.13-15.13-15.13-15.13,6.77-15.13,15.13Zm-38.36,0c0,8.35,6.77,15.13,15.13,15.13s15.13-6.77,15.13-15.13-6.77-15.13-15.13-15.13-15.13,6.77-15.13,15.13Zm-38.36,0c0,8.35,6.77,15.13,15.13,15.13s15.13-6.77,15.13-15.13-6.77-15.13-15.13-15.13-15.13,6.77-15.13,15.13Zm-38.36,0c0,8.35,6.77,15.13,15.13,15.13s15.13-6.77,15.13-15.13-6.77-15.13-15.13-15.13-15.13,6.77-15.13,15.13Zm-38.36,0c0,8.35,6.77,15.13,15.13,15.13s15.13-6.77,15.13-15.13-6.77-15.13-15.13-15.13-15.13,6.77-15.13,15.13Zm-38.36,0c0,8.35,6.77,15.13,15.13,15.13s15.13-6.77,15.13-15.13-6.77-15.13-15.13-15.13-15.13,6.77-15.13,15.13ZM350.97-40.63c0,8.35,6.77,15.13,15.13,15.13s15.13-6.77,15.13-15.13-6.77-15.13-15.13-15.13-15.13,6.77-15.13,15.13Zm-38.36,0c0,8.35,6.77,15.13,15.13,15.13s15.13-6.77,15.13-15.13-6.77-15.13-15.13-15.13-15.13,6.77-15.13,15.13Zm-38.36,0c0,8.35,6.77,15.13,15.13,15.13s15.13-6.77,15.13-15.13-6.77-15.13-15.13-15.13-15.13,6.77-15.13,15.13Zm-38.36,0c0,8.35,6.77,15.13,15.13,15.13s15.13-6.77,15.13-15.13-6.77-15.13-15.13-15.13-15.13,6.77-15.13,15.13Zm-38.36,0c0,8.35,6.77,15.13,15.13,15.13s15.13-6.77,15.13-15.13-6.77-15.13-15.13-15.13-15.13,6.77-15.13,15.13Zm-38.36,0c0,8.35,6.77,15.13,15.13,15.13s15.13-6.77,15.13-15.13-6.77-15.13-15.13-15.13-15.13,6.77-15.13,15.13Zm-38.36,0c0,8.35,6.77,15.13,15.13,15.13s15.13-6.77,15.13-15.13-6.77-15.13-15.13-15.13-15.13,6.77-15.13,15.13Zm-38.36,0c0,8.35,6.77,15.13,15.13,15.13s15.13-6.77,15.13-15.13-6.77-15.13-15.13-15.13-15.13,6.77-15.13,15.13Zm-38.36,0c0,8.35,6.77,15.13,15.13,15.13s15.13-6.77,15.13-15.13-6.77-15.13-15.13-15.13-15.13,6.77-15.13,15.13Zm-38.36,0c0,8.35,6.77,15.13,15.13,15.13s15.13-6.77,15.13-15.13-6.77-15.13-15.13-15.13-15.13,6.77-15.13,15.13ZM331.79-3.64c0,8.35,6.77,15.13,15.13,15.13s15.13-6.77,15.13-15.13-6.77-15.13-15.13-15.13-15.13,6.77-15.13,15.13Zm-38.36,0c0,8.35,6.77,15.13,15.13,15.13s15.13-6.77,15.13-15.13-6.77-15.13-15.13-15.13-15.13,6.77-15.13,15.13Zm-38.36,0c0,8.35,6.77,15.13,15.13,15.13s15.13-6.77,15.13-15.13-6.77-15.13-15.13-15.13-15.13,6.77-15.13,15.13Zm-38.36,0c0,8.35,6.77,15.13,15.13,15.13s15.13-6.77,15.13-15.13-6.77-15.13-15.13-15.13-15.13,6.77-15.13,15.13Zm-38.36,0c0,8.35,6.77,15.13,15.13,15.13s15.13-6.77,15.13-15.13-6.77-15.13-15.13-15.13-15.13,6.77-15.13,15.13Zm-38.36,0c0,8.35,6.77,15.13,15.13,15.13s15.13-6.77,15.13-15.13-6.77-15.13-15.13-15.13-15.13,6.77-15.13,15.13Zm-38.36,0c0,8.35,6.77,15.13,15.13,15.13s15.13-6.77,15.13-15.13-6.77-15.13-15.13-15.13-15.13,6.77-15.13,15.13Zm-38.36,0c0,8.35,6.77,15.13,15.13,15.13s15.13-6.77,15.13-15.13-6.77-15.13-15.13-15.13-15.13,6.77-15.13,15.13Zm-38.36,0c0,8.35,6.77,15.13,15.13,15.13s15.13-6.77,15.13-15.13-6.77-15.13-15.13-15.13-15.13,6.77-15.13,15.13ZM-13.41-3.64C-13.41,4.72-6.64,11.49,1.72,11.49S16.85,4.72,16.85-3.64,10.07-18.76,1.72-18.76-13.41-11.99-13.41-3.64ZM350.97,33.35c0,8.35,6.77,15.13,15.13,15.13s15.13-6.77,15.13-15.13-6.77-15.13-15.13-15.13-15.13,6.77-15.13,15.13Zm-38.36,0c0,8.35,6.77,15.13,15.13,15.13s15.13-6.77,15.13-15.13-6.77-15.13-15.13-15.13-15.13,6.77-15.13,15.13Zm-38.36,0c0,8.35,6.77,15.13,15.13,15.13s15.13-6.77,15.13-15.13-6.77-15.13-15.13-15.13-15.13,6.77-15.13,15.13Zm-38.36,0c0,8.35,6.77,15.13,15.13,15.13s15.13-6.77,15.13-15.13-6.77-15.13-15.13-15.13-15.13,6.77-15.13,15.13Zm-38.36,0c0,8.35,6.77,15.13,15.13,15.13s15.13-6.77,15.13-15.13-6.77-15.13-15.13-15.13-15.13,6.77-15.13,15.13Zm-38.36,0c0,8.35,6.77,15.13,15.13,15.13s15.13-6.77,15.13-15.13-6.77-15.13-15.13-15.13-15.13,6.77-15.13,15.13Zm-38.36,0c0,8.35,6.77,15.13,15.13,15.13s15.13-6.77,15.13-15.13-6.77-15.13-15.13-15.13-15.13,6.77-15.13,15.13Zm-38.36,0c0,8.35,6.77,15.13,15.13,15.13s15.13-6.77,15.13-15.13-6.77-15.13-15.13-15.13-15.13,6.77-15.13,15.13Zm-38.36,0c0,8.35,6.77,15.13,15.13,15.13s15.13-6.77,15.13-15.13-6.77-15.13-15.13-15.13-15.13,6.77-15.13,15.13Zm-38.36,0c0,8.35,6.77,15.13,15.13,15.13s15.13-6.77,15.13-15.13-6.77-15.13-15.13-15.13-15.13,6.77-15.13,15.13Zm326.02,36.99c0,8.35,6.77,15.13,15.13,15.13s15.13-6.77,15.13-15.13-6.77-15.13-15.13-15.13-15.13,6.77-15.13,15.13Zm-38.36,0c0,8.35,6.77,15.13,15.13,15.13s15.13-6.77,15.13-15.13-6.77-15.13-15.13-15.13-15.13,6.77-15.13,15.13Zm-38.36,0c0,8.35,6.77,15.13,15.13,15.13s15.13-6.77,15.13-15.13-6.77-15.13-15.13-15.13-15.13,6.77-15.13,15.13Zm-38.36,0c0,8.35,6.77,15.13,15.13,15.13s15.13-6.77,15.13-15.13-6.77-15.13-15.13-15.13-15.13,6.77-15.13,15.13Zm-38.36,0c0,8.35,6.77,15.13,15.13,15.13s15.13-6.77,15.13-15.13-6.77-15.13-15.13-15.13-15.13,6.77-15.13,15.13Zm-38.36,0c0,8.35,6.77,15.13,15.13,15.13s15.13-6.77,15.13-15.13-6.77-15.13-15.13-15.13-15.13,6.77-15.13,15.13Zm-38.36,0c0,8.35,6.77,15.13,15.13,15.13s15.13-6.77,15.13-15.13-6.77-15.13-15.13-15.13-15.13,6.77-15.13,15.13Zm-38.36,0c0,8.35,6.77,15.13,15.13,15.13s15.13-6.77,15.13-15.13-6.77-15.13-15.13-15.13-15.13,6.77-15.13,15.13Zm-38.36,0c0,8.35,6.77,15.13,15.13,15.13s15.13-6.77,15.13-15.13-6.77-15.13-15.13-15.13-15.13,6.77-15.13,15.13Zm-38.36,0c0,8.35,6.77,15.13,15.13,15.13s15.13-6.77,15.13-15.13-6.77-15.13-15.13-15.13-15.13,6.77-15.13,15.13Zm364.38,36.99c0,8.35,6.77,15.13,15.13,15.13s15.13-6.77,15.13-15.13-6.77-15.13-15.13-15.13-15.13,6.77-15.13,15.13Zm-38.36,0c0,8.35,6.77,15.13,15.13,15.13s15.13-6.77,15.13-15.13-6.77-15.13-15.13-15.13-15.13,6.77-15.13,15.13Zm-38.36,0c0,8.35,6.77,15.13,15.13,15.13s15.13-6.77,15.13-15.13-6.77-15.13-15.13-15.13-15.13,6.77-15.13,15.13Zm-38.36,0c0,8.35,6.77,15.13,15.13,15.13s15.13-6.77,15.13-15.13-6.77-15.13-15.13-15.13-15.13,6.77-15.13,15.13Zm-38.36,0c0,8.35,6.77,15.13,15.13,15.13s15.13-6.77,15.13-15.13-6.77-15.13-15.13-15.13-15.13,6.77-15.13,15.13Zm-38.36,0c0,8.35,6.77,15.13,15.13,15.13s15.13-6.77,15.13-15.13-6.77-15.13-15.13-15.13-15.13,6.77-15.13,15.13Zm-38.36,0c0,8.35,6.77,15.13,15.13,15.13s15.13-6.77,15.13-15.13-6.77-15.13-15.13-15.13-15.13,6.77-15.13,15.13Zm-38.36,0c0,8.35,6.77,15.13,15.13,15.13s15.13-6.77,15.13-15.13-6.77-15.13-15.13-15.13-15.13,6.77-15.13,15.13Zm-38.36,0c0,8.35,6.77,15.13,15.13,15.13s15.13-6.77,15.13-15.13-6.77-15.13-15.13-15.13-15.13,6.77-15.13,15.13Zm-38.36,0c0,8.35,6.77,15.13,15.13,15.13s15.13-6.77,15.13-15.13-6.77-15.13-15.13-15.13-15.13,6.77-15.13,15.13Zm326.02,36.99c0,8.35,6.77,15.13,15.13,15.13s15.13-6.77,15.13-15.13-6.77-15.13-15.13-15.13-15.13,6.77-15.13,15.13Zm-38.36,0c0,8.35,6.77,15.13,15.13,15.13s15.13-6.77,15.13-15.13-6.77-15.13-15.13-15.13-15.13,6.77-15.13,15.13Zm-38.36,0c0,8.35,6.77,15.13,15.13,15.13s15.13-6.77,15.13-15.13-6.77-15.13-15.13-15.13-15.13,6.77-15.13,15.13Zm-38.36,0c0,8.35,6.77,15.13,15.13,15.13s15.13-6.77,15.13-15.13-6.77-15.13-15.13-15.13-15.13,6.77-15.13,15.13Zm-38.36,0c0,8.35,6.77,15.13,15.13,15.13s15.13-6.77,15.13-15.13-6.77-15.13-15.13-15.13-15.13,6.77-15.13,15.13Zm-38.36,0c0,8.35,6.77,15.13,15.13,15.13s15.13-6.77,15.13-15.13-6.77-15.13-15.13-15.13-15.13,6.77-15.13,15.13Zm-38.36,0c0,8.35,6.77,15.13,15.13,15.13s15.13-6.77,15.13-15.13-6.77-15.13-15.13-15.13-15.13,6.77-15.13,15.13Zm-38.36,0c0,8.35,6.77,15.13,15.13,15.13s15.13-6.77,15.13-15.13-6.77-15.13-15.13-15.13-15.13,6.77-15.13,15.13Zm-38.36,0c0,8.35,6.77,15.13,15.13,15.13s15.13-6.77,15.13-15.13-6.77-15.13-15.13-15.13-15.13,6.77-15.13,15.13Zm-38.36,0c0,8.35,6.77,15.13,15.13,15.13s15.13-6.77,15.13-15.13-6.77-15.13-15.13-15.13-15.13,6.77-15.13,15.13Zm364.38,36.99c0,8.35,6.77,15.13,15.13,15.13s15.13-6.77,15.13-15.13-6.77-15.13-15.13-15.13-15.13,6.77-15.13,15.13Zm-38.36,0c0,8.35,6.77,15.13,15.13,15.13s15.13-6.77,15.13-15.13-6.77-15.13-15.13-15.13-15.13,6.77-15.13,15.13Zm-38.36,0c0,8.35,6.77,15.13,15.13,15.13s15.13-6.77,15.13-15.13-6.77-15.13-15.13-15.13-15.13,6.77-15.13,15.13Zm-38.36,0c0,8.35,6.77,15.13,15.13,15.13s15.13-6.77,15.13-15.13-6.77-15.13-15.13-15.13-15.13,6.77-15.13,15.13Zm-38.36,0c0,8.35,6.77,15.13,15.13,15.13s15.13-6.77,15.13-15.13-6.77-15.13-15.13-15.13-15.13,6.77-15.13,15.13Zm-38.36,0c0,8.35,6.77,15.13,15.13,15.13s15.13-6.77,15.13-15.13-6.77-15.13-15.13-15.13-15.13,6.77-15.13,15.13Zm-38.36,0c0,8.35,6.77,15.13,15.13,15.13s15.13-6.77,15.13-15.13-6.77-15.13-15.13-15.13-15.13,6.77-15.13,15.13Zm-38.36,0c0,8.35,6.77,15.13,15.13,15.13s15.13-6.77,15.13-15.13-6.77-15.13-15.13-15.13-15.13,6.77-15.13,15.13Zm-38.36,0c0,8.35,6.77,15.13,15.13,15.13s15.13-6.77,15.13-15.13-6.77-15.13-15.13-15.13-15.13,6.77-15.13,15.13Zm-38.36,0c0,8.35,6.77,15.13,15.13,15.13s15.13-6.77,15.13-15.13-6.77-15.13-15.13-15.13-15.13,6.77-15.13,15.13Zm326.02,36.99c0,8.35,6.77,15.13,15.13,15.13s15.13-6.77,15.13-15.13-6.77-15.13-15.13-15.13-15.13,6.77-15.13,15.13Zm-38.36,0c0,8.35,6.77,15.13,15.13,15.13s15.13-6.77,15.13-15.13-6.77-15.13-15.13-15.13-15.13,6.77-15.13,15.13Zm-38.36,0c0,8.35,6.77,15.13,15.13,15.13s15.13-6.77,15.13-15.13-6.77-15.13-15.13-15.13-15.13,6.77-15.13,15.13Zm-38.36,0c0,8.35,6.77,15.13,15.13,15.13s15.13-6.77,15.13-15.13-6.77-15.13-15.13-15.13-15.13,6.77-15.13,15.13Zm-38.36,0c0,8.35,6.77,15.13,15.13,15.13s15.13-6.77,15.13-15.13-6.77-15.13-15.13-15.13-15.13,6.77-15.13,15.13Zm-38.36,0c0,8.35,6.77,15.13,15.13,15.13s15.13-6.77,15.13-15.13-6.77-15.13-15.13-15.13-15.13,6.77-15.13,15.13Zm-38.36,0c0,8.35,6.77,15.13,15.13,15.13s15.13-6.77,15.13-15.13-6.77-15.13-15.13-15.13-15.13,6.77-15.13,15.13Zm-38.36,0c0,8.35,6.77,15.13,15.13,15.13s15.13-6.77,15.13-15.13-6.77-15.13-15.13-15.13-15.13,6.77-15.13,15.13Zm-38.36,0c0,8.35,6.77,15.13,15.13,15.13s15.13-6.77,15.13-15.13-6.77-15.13-15.13-15.13-15.13,6.77-15.13,15.13Zm-38.36,0c0,8.35,6.77,15.13,15.13,15.13s15.13-6.77,15.13-15.13-6.77-15.13-15.13-15.13-15.13,6.77-15.13,15.13Zm364.38,36.99c0,8.35,6.77,15.13,15.13,15.13s15.13-6.77,15.13-15.13-6.77-15.13-15.13-15.13-15.13,6.77-15.13,15.13Zm-38.36,0c0,8.35,6.77,15.13,15.13,15.13s15.13-6.77,15.13-15.13-6.77-15.13-15.13-15.13-15.13,6.77-15.13,15.13Zm-38.36,0c0,8.35,6.77,15.13,15.13,15.13s15.13-6.77,15.13-15.13-6.77-15.13-15.13-15.13-15.13,6.77-15.13,15.13Zm-38.36,0c0,8.35,6.77,15.13,15.13,15.13s15.13-6.77,15.13-15.13-6.77-15.13-15.13-15.13-15.13,6.77-15.13,15.13Zm-38.36,0c0,8.35,6.77,15.13,15.13,15.13s15.13-6.77,15.13-15.13-6.77-15.13-15.13-15.13-15.13,6.77-15.13,15.13Zm-38.36,0c0,8.35,6.77,15.13,15.13,15.13s15.13-6.77,15.13-15.13-6.77-15.13-15.13-15.13-15.13,6.77-15.13,15.13Zm-38.36,0c0,8.35,6.77,15.13,15.13,15.13s15.13-6.77,15.13-15.13-6.77-15.13-15.13-15.13-15.13,6.77-15.13,15.13Zm-38.36,0c0,8.35,6.77,15.13,15.13,15.13s15.13-6.77,15.13-15.13-6.77-15.13-15.13-15.13-15.13,6.77-15.13,15.13Zm-38.36,0c0,8.35,6.77,15.13,15.13,15.13s15.13-6.77,15.13-15.13-6.77-15.13-15.13-15.13-15.13,6.77-15.13,15.13Zm-38.36,0c0,8.35,6.77,15.13,15.13,15.13s15.13-6.77,15.13-15.13-6.77-15.13-15.13-15.13-15.13,6.77-15.13,15.13Zm326.02,36.99c0,8.35,6.77,15.13,15.13,15.13s15.13-6.77,15.13-15.13-6.77-15.13-15.13-15.13-15.13,6.77-15.13,15.13Zm-38.36,0c0,8.35,6.77,15.13,15.13,15.13s15.13-6.77,15.13-15.13-6.77-15.13-15.13-15.13-15.13,6.77-15.13,15.13Zm-38.36,0c0,8.35,6.77,15.13,15.13,15.13s15.13-6.77,15.13-15.13-6.77-15.13-15.13-15.13-15.13,6.77-15.13,15.13Zm-38.36,0c0,8.35,6.77,15.13,15.13,15.13s15.13-6.77,15.13-15.13-6.77-15.13-15.13-15.13-15.13,6.77-15.13,15.13Zm-38.36,0c0,8.35,6.77,15.13,15.13,15.13s15.13-6.77,15.13-15.13-6.77-15.13-15.13-15.13-15.13,6.77-15.13,15.13Zm-38.36,0c0,8.35,6.77,15.13,15.13,15.13s15.13-6.77,15.13-15.13-6.77-15.13-15.13-15.13-15.13,6.77-15.13,15.13Zm-38.36,0c0,8.35,6.77,15.13,15.13,15.13s15.13-6.77,15.13-15.13-6.77-15.13-15.13-15.13-15.13,6.77-15.13,15.13Zm-38.36,0c0,8.35,6.77,15.13,15.13,15.13s15.13-6.77,15.13-15.13-6.77-15.13-15.13-15.13-15.13,6.77-15.13,15.13Zm-38.36,0c0,8.35,6.77,15.13,15.13,15.13s15.13-6.77,15.13-15.13-6.77-15.13-15.13-15.13-15.13,6.77-15.13,15.13Zm-38.36,0c0,8.35,6.77,15.13,15.13,15.13s15.13-6.77,15.13-15.13-6.77-15.13-15.13-15.13-15.13,6.77-15.13,15.13Zm364.38,36.99c0,8.35,6.77,15.13,15.13,15.13s15.13-6.77,15.13-15.13-6.77-15.13-15.13-15.13-15.13,6.77-15.13,15.13Zm-38.36,0c0,8.35,6.77,15.13,15.13,15.13s15.13-6.77,15.13-15.13-6.77-15.13-15.13-15.13-15.13,6.77-15.13,15.13Zm-38.36,0c0,8.35,6.77,15.13,15.13,15.13s15.13-6.77,15.13-15.13-6.77-15.13-15.13-15.13-15.13,6.77-15.13,15.13Zm-38.36,0c0,8.35,6.77,15.13,15.13,15.13s15.13-6.77,15.13-15.13-6.77-15.13-15.13-15.13-15.13,6.77-15.13,15.13Zm-38.36,0c0,8.35,6.77,15.13,15.13,15.13s15.13-6.77,15.13-15.13-6.77-15.13-15.13-15.13-15.13,6.77-15.13,15.13Zm-38.36,0c0,8.35,6.77,15.13,15.13,15.13s15.13-6.77,15.13-15.13-6.77-15.13-15.13-15.13-15.13,6.77-15.13,15.13Zm-38.36,0c0,8.35,6.77,15.13,15.13,15.13s15.13-6.77,15.13-15.13-6.77-15.13-15.13-15.13-15.13,6.77-15.13,15.13Zm-38.36,0c0,8.35,6.77,15.13,15.13,15.13s15.13-6.77,15.13-15.13-6.77-15.13-15.13-15.13-15.13,6.77-15.13,15.13Zm-38.36,0c0,8.35,6.77,15.13,15.13,15.13s15.13-6.77,15.13-15.13-6.77-15.13-15.13-15.13-15.13,6.77-15.13,15.13Zm-38.36,0c0,8.35,6.77,15.13,15.13,15.13s15.13-6.77,15.13-15.13-6.77-15.13-15.13-15.13-15.13,6.77-15.13,15.13ZM21.29-149.75v-3.04M716.75-77.61c0,8.35,6.77,15.13,15.13,15.13s15.13-6.77,15.13-15.13-6.77-15.13-15.13-15.13-15.13,6.77-15.13,15.13Zm-38.36,0c0,8.35,6.77,15.13,15.13,15.13s15.13-6.77,15.13-15.13-6.77-15.13-15.13-15.13-15.13,6.77-15.13,15.13Zm-38.36,0c0,8.35,6.77,15.13,15.13,15.13s15.13-6.77,15.13-15.13-6.77-15.13-15.13-15.13-15.13,6.77-15.13,15.13Zm-38.36,0c0,8.35,6.77,15.13,15.13,15.13s15.13-6.77,15.13-15.13-6.77-15.13-15.13-15.13-15.13,6.77-15.13,15.13Zm-38.36,0c0,8.35,6.77,15.13,15.13,15.13s15.13-6.77,15.13-15.13-6.77-15.13-15.13-15.13-15.13,6.77-15.13,15.13Zm-38.36,0c0,8.35,6.77,15.13,15.13,15.13s15.13-6.77,15.13-15.13-6.77-15.13-15.13-15.13-15.13,6.77-15.13,15.13Zm-38.36,0c0,8.35,6.77,15.13,15.13,15.13s15.13-6.77,15.13-15.13-6.77-15.13-15.13-15.13-15.13,6.77-15.13,15.13Zm-38.36,0c0,8.35,6.77,15.13,15.13,15.13s15.13-6.77,15.13-15.13-6.77-15.13-15.13-15.13-15.13,6.77-15.13,15.13Zm-38.36,0c0,8.35,6.77,15.13,15.13,15.13s15.13-6.77,15.13-15.13-6.77-15.13-15.13-15.13-15.13,6.77-15.13,15.13Zm-38.36,0c0,8.35,6.77,15.13,15.13,15.13s15.13-6.77,15.13-15.13-6.77-15.13-15.13-15.13-15.13,6.77-15.13,15.13Zm364.38,36.99c0,8.35,6.77,15.13,15.13,15.13s15.13-6.77,15.13-15.13-6.77-15.13-15.13-15.13-15.13,6.77-15.13,15.13Zm-38.36,0c0,8.35,6.77,15.13,15.13,15.13s15.13-6.77,15.13-15.13-6.77-15.13-15.13-15.13-15.13,6.77-15.13,15.13Zm-38.36,0c0,8.35,6.77,15.13,15.13,15.13s15.13-6.77,15.13-15.13-6.77-15.13-15.13-15.13-15.13,6.77-15.13,15.13Zm-38.36,0c0,8.35,6.77,15.13,15.13,15.13s15.13-6.77,15.13-15.13-6.77-15.13-15.13-15.13-15.13,6.77-15.13,15.13Zm-38.36,0c0,8.35,6.77,15.13,15.13,15.13s15.13-6.77,15.13-15.13-6.77-15.13-15.13-15.13-15.13,6.77-15.13,15.13Zm-38.36,0c0,8.35,6.77,15.13,15.13,15.13s15.13-6.77,15.13-15.13-6.77-15.13-15.13-15.13-15.13,6.77-15.13,15.13Zm-38.36,0c0,8.35,6.77,15.13,15.13,15.13s15.13-6.77,15.13-15.13-6.77-15.13-15.13-15.13-15.13,6.77-15.13,15.13Zm-38.36,0c0,8.35,6.77,15.13,15.13,15.13s15.13-6.77,15.13-15.13-6.77-15.13-15.13-15.13-15.13,6.77-15.13,15.13Zm-38.36,0c0,8.35,6.77,15.13,15.13,15.13s15.13-6.77,15.13-15.13-6.77-15.13-15.13-15.13-15.13,6.77-15.13,15.13Zm-38.36,0c0,8.35,6.77,15.13,15.13,15.13s15.13-6.77,15.13-15.13-6.77-15.13-15.13-15.13-15.13,6.77-15.13,15.13ZM716.75-3.64c0,8.35,6.77,15.13,15.13,15.13s15.13-6.77,15.13-15.13-6.77-15.13-15.13-15.13-15.13,6.77-15.13,15.13Zm-38.36,0c0,8.35,6.77,15.13,15.13,15.13s15.13-6.77,15.13-15.13-6.77-15.13-15.13-15.13-15.13,6.77-15.13,15.13Zm-38.36,0c0,8.35,6.77,15.13,15.13,15.13s15.13-6.77,15.13-15.13-6.77-15.13-15.13-15.13-15.13,6.77-15.13,15.13Zm-38.36,0c0,8.35,6.77,15.13,15.13,15.13s15.13-6.77,15.13-15.13-6.77-15.13-15.13-15.13-15.13,6.77-15.13,15.13Zm-38.36,0c0,8.35,6.77,15.13,15.13,15.13s15.13-6.77,15.13-15.13-6.77-15.13-15.13-15.13-15.13,6.77-15.13,15.13Zm-38.36,0c0,8.35,6.77,15.13,15.13,15.13s15.13-6.77,15.13-15.13-6.77-15.13-15.13-15.13-15.13,6.77-15.13,15.13Zm-38.36,0c0,8.35,6.77,15.13,15.13,15.13s15.13-6.77,15.13-15.13-6.77-15.13-15.13-15.13-15.13,6.77-15.13,15.13Zm-38.36,0c0,8.35,6.77,15.13,15.13,15.13s15.13-6.77,15.13-15.13-6.77-15.13-15.13-15.13-15.13,6.77-15.13,15.13Zm-38.36,0c0,8.35,6.77,15.13,15.13,15.13s15.13-6.77,15.13-15.13-6.77-15.13-15.13-15.13-15.13,6.77-15.13,15.13Zm-38.36,0c0,8.35,6.77,15.13,15.13,15.13s15.13-6.77,15.13-15.13-6.77-15.13-15.13-15.13-15.13,6.77-15.13,15.13Zm364.38,36.99c0,8.35,6.77,15.13,15.13,15.13s15.13-6.77,15.13-15.13-6.77-15.13-15.13-15.13-15.13,6.77-15.13,15.13Zm-38.36,0c0,8.35,6.77,15.13,15.13,15.13s15.13-6.77,15.13-15.13-6.77-15.13-15.13-15.13-15.13,6.77-15.13,15.13Zm-38.36,0c0,8.35,6.77,15.13,15.13,15.13s15.13-6.77,15.13-15.13-6.77-15.13-15.13-15.13-15.13,6.77-15.13,15.13Zm-38.36,0c0,8.35,6.77,15.13,15.13,15.13s15.13-6.77,15.13-15.13-6.77-15.13-15.13-15.13-15.13,6.77-15.13,15.13Zm-38.36,0c0,8.35,6.77,15.13,15.13,15.13s15.13-6.77,15.13-15.13-6.77-15.13-15.13-15.13-15.13,6.77-15.13,15.13Zm-38.36,0c0,8.35,6.77,15.13,15.13,15.13s15.13-6.77,15.13-15.13-6.77-15.13-15.13-15.13-15.13,6.77-15.13,15.13Zm-38.36,0c0,8.35,6.77,15.13,15.13,15.13s15.13-6.77,15.13-15.13-6.77-15.13-15.13-15.13-15.13,6.77-15.13,15.13Zm-38.36,0c0,8.35,6.77,15.13,15.13,15.13s15.13-6.77,15.13-15.13-6.77-15.13-15.13-15.13-15.13,6.77-15.13,15.13Zm-38.36,0c0,8.35,6.77,15.13,15.13,15.13s15.13-6.77,15.13-15.13-6.77-15.13-15.13-15.13-15.13,6.77-15.13,15.13Zm-38.36,0c0,8.35,6.77,15.13,15.13,15.13s15.13-6.77,15.13-15.13-6.77-15.13-15.13-15.13-15.13,6.77-15.13,15.13Zm326.02,36.99c0,8.35,6.77,15.13,15.13,15.13s15.13-6.77,15.13-15.13-6.77-15.13-15.13-15.13-15.13,6.77-15.13,15.13Zm-38.36,0c0,8.35,6.77,15.13,15.13,15.13s15.13-6.77,15.13-15.13-6.77-15.13-15.13-15.13-15.13,6.77-15.13,15.13Zm-38.36,0c0,8.35,6.77,15.13,15.13,15.13s15.13-6.77,15.13-15.13-6.77-15.13-15.13-15.13-15.13,6.77-15.13,15.13Zm-38.36,0c0,8.35,6.77,15.13,15.13,15.13s15.13-6.77,15.13-15.13-6.77-15.13-15.13-15.13-15.13,6.77-15.13,15.13Zm-38.36,0c0,8.35,6.77,15.13,15.13,15.13s15.13-6.77,15.13-15.13-6.77-15.13-15.13-15.13-15.13,6.77-15.13,15.13Zm-38.36,0c0,8.35,6.77,15.13,15.13,15.13s15.13-6.77,15.13-15.13-6.77-15.13-15.13-15.13-15.13,6.77-15.13,15.13Zm-38.36,0c0,8.35,6.77,15.13,15.13,15.13s15.13-6.77,15.13-15.13-6.77-15.13-15.13-15.13-15.13,6.77-15.13,15.13Zm-38.36,0c0,8.35,6.77,15.13,15.13,15.13s15.13-6.77,15.13-15.13-6.77-15.13-15.13-15.13-15.13,6.77-15.13,15.13Zm-38.36,0c0,8.35,6.77,15.13,15.13,15.13s15.13-6.77,15.13-15.13-6.77-15.13-15.13-15.13-15.13,6.77-15.13,15.13Zm-38.36,0c0,8.35,6.77,15.13,15.13,15.13s15.13-6.77,15.13-15.13-6.77-15.13-15.13-15.13-15.13,6.77-15.13,15.13Zm364.38,36.99c0,8.35,6.77,15.13,15.13,15.13s15.13-6.77,15.13-15.13-6.77-15.13-15.13-15.13-15.13,6.77-15.13,15.13Zm-38.36,0c0,8.35,6.77,15.13,15.13,15.13s15.13-6.77,15.13-15.13-6.77-15.13-15.13-15.13-15.13,6.77-15.13,15.13Zm-38.36,0c0,8.35,6.77,15.13,15.13,15.13s15.13-6.77,15.13-15.13-6.77-15.13-15.13-15.13-15.13,6.77-15.13,15.13Zm-38.36,0c0,8.35,6.77,15.13,15.13,15.13s15.13-6.77,15.13-15.13-6.77-15.13-15.13-15.13-15.13,6.77-15.13,15.13Zm-38.36,0c0,8.35,6.77,15.13,15.13,15.13s15.13-6.77,15.13-15.13-6.77-15.13-15.13-15.13-15.13,6.77-15.13,15.13Zm-38.36,0c0,8.35,6.77,15.13,15.13,15.13s15.13-6.77,15.13-15.13-6.77-15.13-15.13-15.13-15.13,6.77-15.13,15.13Zm-38.36,0c0,8.35,6.77,15.13,15.13,15.13s15.13-6.77,15.13-15.13-6.77-15.13-15.13-15.13-15.13,6.77-15.13,15.13Zm-38.36,0c0,8.35,6.77,15.13,15.13,15.13s15.13-6.77,15.13-15.13-6.77-15.13-15.13-15.13-15.13,6.77-15.13,15.13Zm-38.36,0c0,8.35,6.77,15.13,15.13,15.13s15.13-6.77,15.13-15.13-6.77-15.13-15.13-15.13-15.13,6.77-15.13,15.13Zm-38.36,0c0,8.35,6.77,15.13,15.13,15.13s15.13-6.77,15.13-15.13-6.77-15.13-15.13-15.13-15.13,6.77-15.13,15.13Zm326.02,36.99c0,8.35,6.77,15.13,15.13,15.13s15.13-6.77,15.13-15.13-6.77-15.13-15.13-15.13-15.13,6.77-15.13,15.13Zm-38.36,0c0,8.35,6.77,15.13,15.13,15.13s15.13-6.77,15.13-15.13-6.77-15.13-15.13-15.13-15.13,6.77-15.13,15.13Zm-38.36,0c0,8.35,6.77,15.13,15.13,15.13s15.13-6.77,15.13-15.13-6.77-15.13-15.13-15.13-15.13,6.77-15.13,15.13Zm-38.36,0c0,8.35,6.77,15.13,15.13,15.13s15.13-6.77,15.13-15.13-6.77-15.13-15.13-15.13-15.13,6.77-15.13,15.13Zm-38.36,0c0,8.35,6.77,15.13,15.13,15.13s15.13-6.77,15.13-15.13-6.77-15.13-15.13-15.13-15.13,6.77-15.13,15.13Zm-38.36,0c0,8.35,6.77,15.13,15.13,15.13s15.13-6.77,15.13-15.13-6.77-15.13-15.13-15.13-15.13,6.77-15.13,15.13Zm-38.36,0c0,8.35,6.77,15.13,15.13,15.13s15.13-6.77,15.13-15.13-6.77-15.13-15.13-15.13-15.13,6.77-15.13,15.13Zm-38.36,0c0,8.35,6.77,15.13,15.13,15.13s15.13-6.77,15.13-15.13-6.77-15.13-15.13-15.13-15.13,6.77-15.13,15.13Zm-38.36,0c0,8.35,6.77,15.13,15.13,15.13s15.13-6.77,15.13-15.13-6.77-15.13-15.13-15.13-15.13,6.77-15.13,15.13Zm-38.36,0c0,8.35,6.77,15.13,15.13,15.13s15.13-6.77,15.13-15.13-6.77-15.13-15.13-15.13-15.13,6.77-15.13,15.13Zm364.38,36.99c0,8.35,6.77,15.13,15.13,15.13s15.13-6.77,15.13-15.13-6.77-15.13-15.13-15.13-15.13,6.77-15.13,15.13Zm-38.36,0c0,8.35,6.77,15.13,15.13,15.13s15.13-6.77,15.13-15.13-6.77-15.13-15.13-15.13-15.13,6.77-15.13,15.13Zm-38.36,0c0,8.35,6.77,15.13,15.13,15.13s15.13-6.77,15.13-15.13-6.77-15.13-15.13-15.13-15.13,6.77-15.13,15.13Zm-38.36,0c0,8.35,6.77,15.13,15.13,15.13s15.13-6.77,15.13-15.13-6.77-15.13-15.13-15.13-15.13,6.77-15.13,15.13Zm-38.36,0c0,8.35,6.77,15.13,15.13,15.13s15.13-6.77,15.13-15.13-6.77-15.13-15.13-15.13-15.13,6.77-15.13,15.13Zm-38.36,0c0,8.35,6.77,15.13,15.13,15.13s15.13-6.77,15.13-15.13-6.77-15.13-15.13-15.13-15.13,6.77-15.13,15.13Zm-38.36,0c0,8.35,6.77,15.13,15.13,15.13s15.13-6.77,15.13-15.13-6.77-15.13-15.13-15.13-15.13,6.77-15.13,15.13Zm-38.36,0c0,8.35,6.77,15.13,15.13,15.13s15.13-6.77,15.13-15.13-6.77-15.13-15.13-15.13-15.13,6.77-15.13,15.13Zm-38.36,0c0,8.35,6.77,15.13,15.13,15.13s15.13-6.77,15.13-15.13-6.77-15.13-15.13-15.13-15.13,6.77-15.13,15.13Zm-38.36,0c0,8.35,6.77,15.13,15.13,15.13s15.13-6.77,15.13-15.13-6.77-15.13-15.13-15.13-15.13,6.77-15.13,15.13Zm326.02,36.99c0,8.35,6.77,15.13,15.13,15.13s15.13-6.77,15.13-15.13-6.77-15.13-15.13-15.13-15.13,6.77-15.13,15.13Zm-38.36,0c0,8.35,6.77,15.13,15.13,15.13s15.13-6.77,15.13-15.13-6.77-15.13-15.13-15.13-15.13,6.77-15.13,15.13Zm-38.36,0c0,8.35,6.77,15.13,15.13,15.13s15.13-6.77,15.13-15.13-6.77-15.13-15.13-15.13-15.13,6.77-15.13,15.13Zm-38.36,0c0,8.35,6.77,15.13,15.13,15.13s15.13-6.77,15.13-15.13-6.77-15.13-15.13-15.13-15.13,6.77-15.13,15.13Zm-38.36,0c0,8.35,6.77,15.13,15.13,15.13s15.13-6.77,15.13-15.13-6.77-15.13-15.13-15.13-15.13,6.77-15.13,15.13Zm-38.36,0c0,8.35,6.77,15.13,15.13,15.13s15.13-6.77,15.13-15.13-6.77-15.13-15.13-15.13-15.13,6.77-15.13,15.13Zm-38.36,0c0,8.35,6.77,15.13,15.13,15.13s15.13-6.77,15.13-15.13-6.77-15.13-15.13-15.13-15.13,6.77-15.13,15.13Zm-38.36,0c0,8.35,6.77,15.13,15.13,15.13s15.13-6.77,15.13-15.13-6.77-15.13-15.13-15.13-15.13,6.77-15.13,15.13Zm-38.36,0c0,8.35,6.77,15.13,15.13,15.13s15.13-6.77,15.13-15.13-6.77-15.13-15.13-15.13-15.13,6.77-15.13,15.13Zm-38.36,0c0,8.35,6.77,15.13,15.13,15.13s15.13-6.77,15.13-15.13-6.77-15.13-15.13-15.13-15.13,6.77-15.13,15.13Zm364.38,36.99c0,8.35,6.77,15.13,15.13,15.13s15.13-6.77,15.13-15.13-6.77-15.13-15.13-15.13-15.13,6.77-15.13,15.13Zm-38.36,0c0,8.35,6.77,15.13,15.13,15.13s15.13-6.77,15.13-15.13-6.77-15.13-15.13-15.13-15.13,6.77-15.13,15.13Zm-38.36,0c0,8.35,6.77,15.13,15.13,15.13s15.13-6.77,15.13-15.13-6.77-15.13-15.13-15.13-15.13,6.77-15.13,15.13Zm-38.36,0c0,8.35,6.77,15.13,15.13,15.13s15.13-6.77,15.13-15.13-6.77-15.13-15.13-15.13-15.13,6.77-15.13,15.13Zm-38.36,0c0,8.35,6.77,15.13,15.13,15.13s15.13-6.77,15.13-15.13-6.77-15.13-15.13-15.13-15.13,6.77-15.13,15.13Zm-38.36,0c0,8.35,6.77,15.13,15.13,15.13s15.13-6.77,15.13-15.13-6.77-15.13-15.13-15.13-15.13,6.77-15.13,15.13Zm-38.36,0c0,8.35,6.77,15.13,15.13,15.13s15.13-6.77,15.13-15.13-6.77-15.13-15.13-15.13-15.13,6.77-15.13,15.13Zm-38.36,0c0,8.35,6.77,15.13,15.13,15.13s15.13-6.77,15.13-15.13-6.77-15.13-15.13-15.13-15.13,6.77-15.13,15.13Zm-38.36,0c0,8.35,6.77,15.13,15.13,15.13s15.13-6.77,15.13-15.13-6.77-15.13-15.13-15.13-15.13,6.77-15.13,15.13Zm-38.36,0c0,8.35,6.77,15.13,15.13,15.13s15.13-6.77,15.13-15.13-6.77-15.13-15.13-15.13-15.13,6.77-15.13,15.13Zm326.02,36.99c0,8.35,6.77,15.13,15.13,15.13s15.13-6.77,15.13-15.13-6.77-15.13-15.13-15.13-15.13,6.77-15.13,15.13Zm-38.36,0c0,8.35,6.77,15.13,15.13,15.13s15.13-6.77,15.13-15.13-6.77-15.13-15.13-15.13-15.13,6.77-15.13,15.13Zm-38.36,0c0,8.35,6.77,15.13,15.13,15.13s15.13-6.77,15.13-15.13-6.77-15.13-15.13-15.13-15.13,6.77-15.13,15.13Zm-38.36,0c0,8.35,6.77,15.13,15.13,15.13s15.13-6.77,15.13-15.13-6.77-15.13-15.13-15.13-15.13,6.77-15.13,15.13Zm-38.36,0c0,8.35,6.77,15.13,15.13,15.13s15.13-6.77,15.13-15.13-6.77-15.13-15.13-15.13-15.13,6.77-15.13,15.13Zm-38.36,0c0,8.35,6.77,15.13,15.13,15.13s15.13-6.77,15.13-15.13-6.77-15.13-15.13-15.13-15.13,6.77-15.13,15.13Zm-38.36,0c0,8.35,6.77,15.13,15.13,15.13s15.13-6.77,15.13-15.13-6.77-15.13-15.13-15.13-15.13,6.77-15.13,15.13Zm-38.36,0c0,8.35,6.77,15.13,15.13,15.13s15.13-6.77,15.13-15.13-6.77-15.13-15.13-15.13-15.13,6.77-15.13,15.13Zm-38.36,0c0,8.35,6.77,15.13,15.13,15.13s15.13-6.77,15.13-15.13-6.77-15.13-15.13-15.13-15.13,6.77-15.13,15.13Zm-38.36,0c0,8.35,6.77,15.13,15.13,15.13s15.13-6.77,15.13-15.13-6.77-15.13-15.13-15.13-15.13,6.77-15.13,15.13Zm364.38,36.99c0,8.35,6.77,15.13,15.13,15.13s15.13-6.77,15.13-15.13-6.77-15.13-15.13-15.13-15.13,6.77-15.13,15.13Zm-38.36,0c0,8.35,6.77,15.13,15.13,15.13s15.13-6.77,15.13-15.13-6.77-15.13-15.13-15.13-15.13,6.77-15.13,15.13Zm-38.36,0c0,8.35,6.77,15.13,15.13,15.13s15.13-6.77,15.13-15.13-6.77-15.13-15.13-15.13-15.13,6.77-15.13,15.13Zm-38.36,0c0,8.35,6.77,15.13,15.13,15.13s15.13-6.77,15.13-15.13-6.77-15.13-15.13-15.13-15.13,6.77-15.13,15.13Zm-38.36,0c0,8.35,6.77,15.13,15.13,15.13s15.13-6.77,15.13-15.13-6.77-15.13-15.13-15.13-15.13,6.77-15.13,15.13Zm-38.36,0c0,8.35,6.77,15.13,15.13,15.13s15.13-6.77,15.13-15.13-6.77-15.13-15.13-15.13-15.13,6.77-15.13,15.13Zm-38.36,0c0,8.35,6.77,15.13,15.13,15.13s15.13-6.77,15.13-15.13-6.77-15.13-15.13-15.13-15.13,6.77-15.13,15.13Zm-38.36,0c0,8.35,6.77,15.13,15.13,15.13s15.13-6.77,15.13-15.13-6.77-15.13-15.13-15.13-15.13,6.77-15.13,15.13Zm-38.36,0c0,8.35,6.77,15.13,15.13,15.13s15.13-6.77,15.13-15.13-6.77-15.13-15.13-15.13-15.13,6.77-15.13,15.13Zm-38.36,0c0,8.35,6.77,15.13,15.13,15.13s15.13-6.77,15.13-15.13-6.77-15.13-15.13-15.13-15.13,6.77-15.13,15.13Zm15.52-479.01v-3.04"/></g></g></g></g>
</svg>